<?xml version="1.0" encoding="UTF-8"?><svg xmlns="http://www.w3.org/2000/svg" xmlns:xlink="http://www.w3.org/1999/xlink" fill-opacity="1" color-rendering="auto" color-interpolation="auto" text-rendering="auto" stroke="black" stroke-linecap="square" width="716" stroke-miterlimit="10" shape-rendering="auto" stroke-opacity="1" fill="black" stroke-dasharray="none" font-weight="normal" stroke-width="1" height="1124" font-family="'Dialog'" font-style="normal" stroke-linejoin="miter" font-size="12px" stroke-dashoffset="0" image-rendering="auto">
  <!--Generated by ySVG 2.5-->
  <defs id="genericDefs"/>
  <g>
    <defs id="defs1">
      <linearGradient x1="38.2957" gradientUnits="userSpaceOnUse" x2="324.7043" y1="-162.0529" y2="896.6984" id="linearGradient1" spreadMethod="reflect">
        <stop stop-opacity="0.1098" stop-color="rgb(0,102,255)" offset="0%"/>
        <stop stop-opacity="0.1098" stop-color="rgb(0,102,255)" offset="100%"/>
      </linearGradient>
      <linearGradient x1="436.6942" gradientUnits="userSpaceOnUse" x2="723.1028" y1="-162.0529" y2="896.6984" id="linearGradient2" spreadMethod="reflect">
        <stop stop-opacity="0.1059" stop-color="rgb(200,255,0)" offset="0%"/>
        <stop stop-opacity="0.1059" stop-color="rgb(200,255,0)" offset="100%"/>
      </linearGradient>
      <linearGradient x1="71" gradientUnits="userSpaceOnUse" x2="292" y1="4" y2="153" id="linearGradient3" spreadMethod="reflect">
        <stop stop-opacity="1" stop-color="white" offset="0%"/>
        <stop stop-opacity="1" stop-color="white" offset="100%"/>
      </linearGradient>
      <linearGradient x1="71" gradientUnits="userSpaceOnUse" x2="292" y1="349.5" y2="448.5" id="linearGradient4" spreadMethod="reflect">
        <stop stop-opacity="1" stop-color="white" offset="0%"/>
        <stop stop-opacity="1" stop-color="white" offset="100%"/>
      </linearGradient>
      <linearGradient x1="71" gradientUnits="userSpaceOnUse" x2="292" y1="247" y2="306" id="linearGradient5" spreadMethod="reflect">
        <stop stop-opacity="1" stop-color="rgb(232,238,247)" offset="0%"/>
        <stop stop-opacity="1" stop-color="rgb(183,201,227)" offset="100%"/>
      </linearGradient>
      <linearGradient x1="469.3985" gradientUnits="userSpaceOnUse" x2="690.3985" y1="598.5" y2="878.5" id="linearGradient6" spreadMethod="reflect">
        <stop stop-opacity="1" stop-color="white" offset="0%"/>
        <stop stop-opacity="1" stop-color="white" offset="100%"/>
      </linearGradient>
      <linearGradient x1="71" gradientUnits="userSpaceOnUse" x2="292" y1="819.5" y2="878.5" id="linearGradient7" spreadMethod="reflect">
        <stop stop-opacity="1" stop-color="rgb(232,238,247)" offset="0%"/>
        <stop stop-opacity="1" stop-color="rgb(183,201,227)" offset="100%"/>
      </linearGradient>
      <linearGradient x1="469.3985" gradientUnits="userSpaceOnUse" x2="690.3985" y1="94" y2="153" id="linearGradient8" spreadMethod="reflect">
        <stop stop-opacity="1" stop-color="rgb(232,238,247)" offset="0%"/>
        <stop stop-opacity="1" stop-color="rgb(183,201,227)" offset="100%"/>
      </linearGradient>
      <linearGradient x1="469.3985" gradientUnits="userSpaceOnUse" x2="690.3985" y1="389.5" y2="448.5" id="linearGradient9" spreadMethod="reflect">
        <stop stop-opacity="1" stop-color="rgb(232,238,247)" offset="0%"/>
        <stop stop-opacity="1" stop-color="rgb(183,201,227)" offset="100%"/>
      </linearGradient>
      <linearGradient x1="469.3985" gradientUnits="userSpaceOnUse" x2="690.3985" y1="488.5" y2="547.5" id="linearGradient10" spreadMethod="reflect">
        <stop stop-opacity="1" stop-color="rgb(232,238,247)" offset="0%"/>
        <stop stop-opacity="1" stop-color="rgb(183,201,227)" offset="100%"/>
      </linearGradient>
      <linearGradient x1="469.3985" gradientUnits="userSpaceOnUse" x2="690.3985" y1="195" y2="306" id="linearGradient11" spreadMethod="reflect">
        <stop stop-opacity="1" stop-color="white" offset="0%"/>
        <stop stop-opacity="1" stop-color="white" offset="100%"/>
      </linearGradient>
      <linearGradient x1="71" gradientUnits="userSpaceOnUse" x2="292" y1="-128.9645" y2="-69.9645" id="linearGradient12" spreadMethod="reflect">
        <stop stop-opacity="1" stop-color="rgb(232,238,247)" offset="0%"/>
        <stop stop-opacity="1" stop-color="rgb(183,201,227)" offset="100%"/>
      </linearGradient>
      <clipPath clipPathUnits="userSpaceOnUse" id="clipPath1">
        <path d="M0 0 L716 0 L716 1124 L0 1124 L0 0 Z"/>
      </clipPath>
      <clipPath clipPathUnits="userSpaceOnUse" id="clipPath2">
        <path d="M23 -212 L739 -212 L739 912 L23 912 L23 -212 Z"/>
      </clipPath>
    </defs>
    <g fill="white" text-rendering="geometricPrecision" shape-rendering="geometricPrecision" transform="translate(-23,212)" stroke="white">
      <rect x="23" width="716" height="1124" y="-212" clip-path="url(#clipPath2)" stroke="none"/>
    </g>
    <g transform="matrix(1,0,0,1,-23,212)" fill-opacity="0.1294" fill="rgb(128,128,128)" text-rendering="geometricPrecision" shape-rendering="geometricPrecision" stroke="rgb(128,128,128)" stroke-opacity="0.1294">
      <path d="M38.2957 170.5 L723.1028 170.5 L723.1028 457.453 L38.2957 457.453 Z" stroke="none" clip-path="url(#clipPath2)"/>
    </g>
    <g text-rendering="geometricPrecision" stroke-miterlimit="1.45" stroke-dasharray="6,2" shape-rendering="geometricPrecision" transform="matrix(1,0,0,1,-23,212)" stroke-linecap="butt">
      <path fill="none" d="M38.2957 170.5 L723.1028 170.5 L723.1028 457.453 L38.2957 457.453 Z" clip-path="url(#clipPath2)"/>
      <text x="347.9327" y="187.6387" clip-path="url(#clipPath2)" font-family="sans-serif" stroke-dasharray="none" stroke="none" xml:space="preserve">This block is</text>
      <text x="347.9327" y="201.6074" clip-path="url(#clipPath2)" font-family="sans-serif" stroke-dasharray="none" stroke="none" xml:space="preserve">repeated</text>
      <text x="347.9327" y="215.5762" clip-path="url(#clipPath2)" font-family="sans-serif" stroke-dasharray="none" stroke="none" xml:space="preserve">as often as</text>
      <text x="347.9327" y="229.5449" clip-path="url(#clipPath2)" font-family="sans-serif" stroke-dasharray="none" stroke="none" xml:space="preserve">required.</text>
    </g>
    <g fill="url(#linearGradient1)" text-rendering="geometricPrecision" shape-rendering="geometricPrecision" transform="matrix(1,0,0,1,-23,212)" stroke="url(#linearGradient1)">
      <path d="M38.2957 -162.0529 L324.7043 -162.0529 L324.7043 896.6984 L38.2957 896.6984 Z" stroke="none" clip-path="url(#clipPath2)"/>
    </g>
    <g text-rendering="geometricPrecision" stroke-miterlimit="1.45" shape-rendering="geometricPrecision" transform="matrix(1,0,0,1,-23,212)" stroke-linecap="butt">
      <path fill="none" d="M38.2957 -162.0529 L324.7043 -162.0529 L324.7043 896.6984 L38.2957 896.6984 Z" clip-path="url(#clipPath2)"/>
      <text x="158.4868" font-size="14px" y="-143.0578" clip-path="url(#clipPath2)" font-family="sans-serif" stroke="none" font-weight="bold" xml:space="preserve">Client</text>
    </g>
    <g fill="url(#linearGradient2)" text-rendering="geometricPrecision" shape-rendering="geometricPrecision" transform="matrix(1,0,0,1,-23,212)" stroke="url(#linearGradient2)">
      <path d="M436.6942 -162.0529 L723.1028 -162.0529 L723.1028 896.6984 L436.6942 896.6984 Z" stroke="none" clip-path="url(#clipPath2)"/>
    </g>
    <g text-rendering="geometricPrecision" stroke-miterlimit="1.45" shape-rendering="geometricPrecision" transform="matrix(1,0,0,1,-23,212)" stroke-linecap="butt">
      <path fill="none" d="M436.6942 -162.0529 L723.1028 -162.0529 L723.1028 896.6984 L436.6942 896.6984 Z" clip-path="url(#clipPath2)"/>
      <text x="553.8946" font-size="14px" y="-143.0578" clip-path="url(#clipPath2)" font-family="sans-serif" stroke="none" font-weight="bold" xml:space="preserve">Server</text>
    </g>
    <g fill="url(#linearGradient3)" text-rendering="geometricPrecision" shape-rendering="geometricPrecision" transform="matrix(1,0,0,1,-23,212)" stroke="url(#linearGradient3)">
      <path d="M71 4 L292 4 L292 153 L71 153 Z" stroke="none" clip-path="url(#clipPath2)"/>
    </g>
    <g text-rendering="geometricPrecision" stroke-miterlimit="1.45" shape-rendering="geometricPrecision" transform="matrix(1,0,0,1,-23,212)" stroke-linecap="butt">
      <path fill="none" d="M71 4 L292 4 L292 153 L71 153 Z" clip-path="url(#clipPath2)"/>
      <text x="77" xml:space="preserve" y="21.1387" clip-path="url(#clipPath2)" font-family="monospace" stroke="none">{</text>
      <text x="77" xml:space="preserve" y="35.1074" clip-path="url(#clipPath2)" font-family="monospace" stroke="none">  "version": 0,</text>
      <text x="77" xml:space="preserve" y="49.0762" clip-path="url(#clipPath2)" font-family="monospace" stroke="none">  "type": 0,</text>
      <text x="77" xml:space="preserve" y="63.0449" clip-path="url(#clipPath2)" font-family="monospace" stroke="none">  "files": [</text>
      <text x="77" xml:space="preserve" y="77.0137" clip-path="url(#clipPath2)" font-family="monospace" stroke="none">    {</text>
      <text x="77" xml:space="preserve" y="90.9824" clip-path="url(#clipPath2)" font-family="monospace" stroke="none">      "name": "foobar.tiff",</text>
      <text x="77" xml:space="preserve" y="104.9512" clip-path="url(#clipPath2)" font-family="monospace" stroke="none">      "size": 1200032</text>
      <text x="77" xml:space="preserve" y="118.9199" clip-path="url(#clipPath2)" font-family="monospace" stroke="none">    }</text>
      <text x="77" xml:space="preserve" y="132.8887" clip-path="url(#clipPath2)" font-family="monospace" stroke="none">  ]</text>
      <text x="77" xml:space="preserve" y="146.8574" clip-path="url(#clipPath2)" font-family="monospace" stroke="none">}</text>
    </g>
    <g fill="url(#linearGradient4)" text-rendering="geometricPrecision" shape-rendering="geometricPrecision" transform="matrix(1,0,0,1,-23,212)" stroke="url(#linearGradient4)">
      <path d="M71 349.5 L292 349.5 L292 448.5 L71 448.5 Z" stroke="none" clip-path="url(#clipPath2)"/>
    </g>
    <g text-rendering="geometricPrecision" stroke-miterlimit="1.45" shape-rendering="geometricPrecision" transform="matrix(1,0,0,1,-23,212)" stroke-linecap="butt">
      <path fill="none" d="M71 349.5 L292 349.5 L292 448.5 L71 448.5 Z" clip-path="url(#clipPath2)"/>
      <text x="77" xml:space="preserve" y="366.6387" clip-path="url(#clipPath2)" font-family="monospace" stroke="none">struct Block {</text>
      <text x="77" xml:space="preserve" y="380.6074" clip-path="url(#clipPath2)" font-family="monospace" stroke="none">  struct Header header;</text>
      <text x="77" xml:space="preserve" y="394.5762" clip-path="url(#clipPath2)" font-family="monospace" stroke="none">  uint32 requestId;</text>
      <text x="77" xml:space="preserve" y="408.5449" clip-path="url(#clipPath2)" font-family="monospace" stroke="none">  uint16 size;</text>
      <text x="77" xml:space="preserve" y="422.5137" clip-path="url(#clipPath2)" font-family="monospace" stroke="none">  ubyte block[size];</text>
      <text x="77" xml:space="preserve" y="436.4824" clip-path="url(#clipPath2)" font-family="monospace" stroke="none">};</text>
    </g>
    <g fill="url(#linearGradient5)" text-rendering="geometricPrecision" shape-rendering="geometricPrecision" transform="matrix(1,0,0,1,-23,212)" stroke="url(#linearGradient5)">
      <path d="M71 247 L292 247 L292 306 L71 306 Z" stroke="none" clip-path="url(#clipPath2)"/>
    </g>
    <g text-rendering="geometricPrecision" stroke-miterlimit="1.45" shape-rendering="geometricPrecision" transform="matrix(1,0,0,1,-23,212)" stroke-linecap="butt">
      <path fill="none" d="M71 247 L292 247 L292 306 L71 306 Z" clip-path="url(#clipPath2)"/>
      <text x="155.1094" xml:space="preserve" y="280.6543" clip-path="url(#clipPath2)" font-family="sans-serif" stroke="none">Read file</text>
    </g>
    <g fill="url(#linearGradient6)" text-rendering="geometricPrecision" shape-rendering="geometricPrecision" transform="matrix(1,0,0,1,-23,212)" stroke="url(#linearGradient6)">
      <path d="M469.3985 598.5 L690.3985 598.5 L690.3985 878.5 L469.3985 878.5 Z" stroke="none" clip-path="url(#clipPath2)"/>
    </g>
    <g text-rendering="geometricPrecision" stroke-miterlimit="1.45" shape-rendering="geometricPrecision" transform="matrix(1,0,0,1,-23,212)" stroke-linecap="butt">
      <path fill="none" d="M469.3985 598.5 L690.3985 598.5 L690.3985 878.5 L469.3985 878.5 Z" clip-path="url(#clipPath2)"/>
      <text x="475.3985" xml:space="preserve" y="615.6387" clip-path="url(#clipPath2)" font-family="monospace" stroke="none">{</text>
      <text x="475.3985" xml:space="preserve" y="629.6074" clip-path="url(#clipPath2)" font-family="monospace" stroke="none">  "version": 0,</text>
      <text x="475.3985" xml:space="preserve" y="643.5762" clip-path="url(#clipPath2)" font-family="monospace" stroke="none">  "type": 5</text>
      <text x="475.3985" xml:space="preserve" y="657.5449" clip-path="url(#clipPath2)" font-family="monospace" stroke="none">  "status": "complete",</text>
      <text x="475.3985" xml:space="preserve" y="671.5137" clip-path="url(#clipPath2)" font-family="monospace" stroke="none"> </text>
      <text x="475.3985" xml:space="preserve" y="685.4824" clip-path="url(#clipPath2)" font-family="monospace" stroke="none">  "category": "surface",</text>
      <text x="475.3985" xml:space="preserve" y="699.4512" clip-path="url(#clipPath2)" font-family="monospace" stroke="none">  "center": [</text>
      <text x="475.3985" xml:space="preserve" y="713.4199" clip-path="url(#clipPath2)" font-family="monospace" stroke="none">    -64.05024512017867,</text>
      <text x="475.3985" xml:space="preserve" y="727.3887" clip-path="url(#clipPath2)" font-family="monospace" stroke="none">    48.35662792486626</text>
      <text x="475.3985" xml:space="preserve" y="741.3574" clip-path="url(#clipPath2)" font-family="monospace" stroke="none">  ],</text>
      <text x="475.3985" xml:space="preserve" y="755.3262" clip-path="url(#clipPath2)" font-family="monospace" stroke="none">  "format": "gtiff",</text>
      <text x="475.3985" xml:space="preserve" y="769.2949" clip-path="url(#clipPath2)" font-family="monospace" stroke="none">  "format_details": {</text>
      <text x="475.3985" xml:space="preserve" y="783.2637" clip-path="url(#clipPath2)" font-family="monospace" stroke="none">    "mask": null,</text>
      <text x="475.3985" xml:space="preserve" y="797.2324" clip-path="url(#clipPath2)" font-family="monospace" stroke="none">    "nodata_guess": null,</text>
      <text x="475.3985" xml:space="preserve" y="811.2012" clip-path="url(#clipPath2)" font-family="monospace" stroke="none">    "num_bands": 1</text>
      <text x="475.3985" xml:space="preserve" y="825.1699" clip-path="url(#clipPath2)" font-family="monospace" stroke="none">  },</text>
      <text x="475.3985" xml:space="preserve" y="839.1387" clip-path="url(#clipPath2)" font-family="monospace" stroke="none">  "main_file": "foobar.tiff",</text>
      <text x="475.3985" xml:space="preserve" y="853.1074" clip-path="url(#clipPath2)" font-family="monospace" stroke="none">  "srs": "+proj=aea..."</text>
      <text x="475.3985" xml:space="preserve" y="867.0762" clip-path="url(#clipPath2)" font-family="monospace" stroke="none">}</text>
    </g>
    <g fill="url(#linearGradient7)" text-rendering="geometricPrecision" shape-rendering="geometricPrecision" transform="matrix(1,0,0,1,-23,212)" stroke="url(#linearGradient7)">
      <path d="M71 819.5 L292 819.5 L292 878.5 L71 878.5 Z" stroke="none" clip-path="url(#clipPath2)"/>
    </g>
    <g text-rendering="geometricPrecision" stroke-miterlimit="1.45" shape-rendering="geometricPrecision" transform="matrix(1,0,0,1,-23,212)" stroke-linecap="butt">
      <path fill="none" d="M71 819.5 L292 819.5 L292 878.5 L71 878.5 Z" clip-path="url(#clipPath2)"/>
      <text x="139.4883" xml:space="preserve" y="853.1543" clip-path="url(#clipPath2)" font-family="sans-serif" stroke="none">Process result</text>
    </g>
    <g text-rendering="geometricPrecision" stroke-miterlimit="1.45" shape-rendering="geometricPrecision" font-family="sans-serif" transform="matrix(1,0,0,1,-23,212)" stroke-linecap="butt">
      <text x="71" xml:space="preserve" y="-2.3457" clip-path="url(#clipPath2)" stroke="none">Message "File list"</text>
    </g>
    <g text-rendering="geometricPrecision" stroke-miterlimit="1.45" shape-rendering="geometricPrecision" font-family="sans-serif" transform="matrix(1,0,0,1,-23,212)" stroke-linecap="butt">
      <text x="71" xml:space="preserve" y="343.1543" clip-path="url(#clipPath2)" stroke="none">Message "Block"</text>
    </g>
    <g text-rendering="geometricPrecision" stroke-miterlimit="1.45" shape-rendering="geometricPrecision" font-family="sans-serif" transform="matrix(1,0,0,1,-23,212)" stroke-linecap="butt">
      <text x="469.3985" xml:space="preserve" y="188.6543" clip-path="url(#clipPath2)" stroke="none">Message "Read"</text>
    </g>
    <g text-rendering="geometricPrecision" stroke-miterlimit="1.45" shape-rendering="geometricPrecision" font-family="sans-serif" transform="matrix(1,0,0,1,-23,212)" stroke-linecap="butt">
      <text x="469.3985" xml:space="preserve" y="592.1543" clip-path="url(#clipPath2)" stroke="none">Message "Result"</text>
    </g>
    <g fill="url(#linearGradient8)" text-rendering="geometricPrecision" shape-rendering="geometricPrecision" transform="matrix(1,0,0,1,-23,212)" stroke="url(#linearGradient8)">
      <rect x="469.3985" y="94" clip-path="url(#clipPath2)" width="221" rx="29.5" ry="29.5" height="59" stroke="none"/>
    </g>
    <g text-rendering="geometricPrecision" stroke-miterlimit="1.45" shape-rendering="geometricPrecision" transform="matrix(1,0,0,1,-23,212)" stroke-linecap="butt">
      <rect x="469.3985" y="94" clip-path="url(#clipPath2)" fill="none" width="221" rx="29.5" ry="29.5" height="59"/>
      <text x="539.0411" xml:space="preserve" y="127.6543" clip-path="url(#clipPath2)" font-family="sans-serif" stroke="none">Start analysis</text>
    </g>
    <g fill="url(#linearGradient9)" text-rendering="geometricPrecision" shape-rendering="geometricPrecision" transform="matrix(1,0,0,1,-23,212)" stroke="url(#linearGradient9)">
      <path d="M579.8985 389.5 L690.3985 419 L579.8985 448.5 L469.3985 419 Z" stroke="none" clip-path="url(#clipPath2)"/>
    </g>
    <g text-rendering="geometricPrecision" stroke-miterlimit="1.45" shape-rendering="geometricPrecision" transform="matrix(1,0,0,1,-23,212)" stroke-linecap="butt">
      <path fill="none" d="M579.8985 389.5 L690.3985 419 L579.8985 448.5 L469.3985 419 Z" clip-path="url(#clipPath2)"/>
      <text x="564.2188" xml:space="preserve" y="409.1855" clip-path="url(#clipPath2)" font-family="sans-serif" stroke="none">Need</text>
      <text x="564.2247" xml:space="preserve" y="423.1543" clip-path="url(#clipPath2)" font-family="sans-serif" stroke="none">more</text>
      <text x="563.1993" xml:space="preserve" y="437.123" clip-path="url(#clipPath2)" font-family="sans-serif" stroke="none">data?</text>
    </g>
    <g fill="url(#linearGradient10)" text-rendering="geometricPrecision" shape-rendering="geometricPrecision" transform="matrix(1,0,0,1,-23,212)" stroke="url(#linearGradient10)">
      <rect x="469.3985" y="488.5" clip-path="url(#clipPath2)" width="221" rx="29.5" ry="29.5" height="59" stroke="none"/>
    </g>
    <g text-rendering="geometricPrecision" stroke-miterlimit="1.45" shape-rendering="geometricPrecision" transform="matrix(1,0,0,1,-23,212)" stroke-linecap="butt">
      <rect x="469.3985" y="488.5" clip-path="url(#clipPath2)" fill="none" width="221" rx="29.5" ry="29.5" height="59"/>
      <text x="529.5928" xml:space="preserve" y="522.1543" clip-path="url(#clipPath2)" font-family="sans-serif" stroke="none">Analysis finished</text>
    </g>
    <g fill="url(#linearGradient11)" text-rendering="geometricPrecision" shape-rendering="geometricPrecision" transform="matrix(1,0,0,1,-23,212)" stroke="url(#linearGradient11)">
      <path d="M469.3985 195 L690.3985 195 L690.3985 306 L469.3985 306 Z" stroke="none" clip-path="url(#clipPath2)"/>
    </g>
    <g text-rendering="geometricPrecision" stroke-miterlimit="1.45" shape-rendering="geometricPrecision" transform="matrix(1,0,0,1,-23,212)" stroke-linecap="butt">
      <path fill="none" d="M469.3985 195 L690.3985 195 L690.3985 306 L469.3985 306 Z" clip-path="url(#clipPath2)"/>
      <text x="475.3985" xml:space="preserve" y="212.1387" clip-path="url(#clipPath2)" font-family="monospace" stroke="none">struct Read {</text>
      <text x="475.3985" xml:space="preserve" y="226.1074" clip-path="url(#clipPath2)" font-family="monospace" stroke="none">  struct Header header;</text>
      <text x="475.3985" xml:space="preserve" y="240.0762" clip-path="url(#clipPath2)" font-family="monospace" stroke="none">  uint32 requestId;</text>
      <text x="475.3985" xml:space="preserve" y="254.0449" clip-path="url(#clipPath2)" font-family="monospace" stroke="none">  uint16 fileId;</text>
      <text x="475.3985" xml:space="preserve" y="268.0137" clip-path="url(#clipPath2)" font-family="monospace" stroke="none">  uint64 offset;</text>
      <text x="475.3985" xml:space="preserve" y="281.9824" clip-path="url(#clipPath2)" font-family="monospace" stroke="none">  uint16 size;</text>
      <text x="475.3985" xml:space="preserve" y="295.9512" clip-path="url(#clipPath2)" font-family="monospace" stroke="none">};</text>
    </g>
    <g font-size="18px" stroke-linecap="butt" transform="matrix(1,0,0,1,-23,212)" text-rendering="geometricPrecision" font-family="sans-serif" shape-rendering="geometricPrecision" font-weight="bold" stroke-miterlimit="1.45">
      <text x="256.2242" xml:space="preserve" y="-178.2432" clip-path="url(#clipPath2)" stroke="none">Upload: Analyse process</text>
    </g>
    <g fill="url(#linearGradient12)" text-rendering="geometricPrecision" shape-rendering="geometricPrecision" transform="matrix(1,0,0,1,-23,212)" stroke="url(#linearGradient12)">
      <rect x="71" y="-128.9645" clip-path="url(#clipPath2)" width="221" rx="29.5" ry="29.5" height="59" stroke="none"/>
    </g>
    <g text-rendering="geometricPrecision" stroke-miterlimit="1.45" shape-rendering="geometricPrecision" transform="matrix(1,0,0,1,-23,212)" stroke-linecap="butt">
      <rect x="71" y="-128.9645" clip-path="url(#clipPath2)" fill="none" width="221" rx="29.5" ry="29.5" height="59"/>
      <text x="108.1641" xml:space="preserve" y="-95.3102" clip-path="url(#clipPath2)" font-family="sans-serif" stroke="none">Files selected for upload</text>
    </g>
    <g text-rendering="geometricPrecision" stroke-miterlimit="1.45" shape-rendering="geometricPrecision" transform="matrix(1,0,0,1,-23,212)" stroke-linecap="butt">
      <path fill="none" d="M181.5 306.0184 L181.5 341.4673" clip-path="url(#clipPath2)"/>
    </g>
    <g text-rendering="geometricPrecision" stroke-miterlimit="1.45" shape-rendering="geometricPrecision" transform="matrix(1,0,0,1,-23,212)" stroke-linecap="butt">
      <path d="M181.5 349.4673 L186.5 337.4673 L181.5 340.4673 L176.5 337.4673 Z" stroke="none" clip-path="url(#clipPath2)"/>
      <path fill="none" d="M469.4324 849 L299.9702 849" clip-path="url(#clipPath2)"/>
      <path d="M291.9702 849 L303.9702 854 L300.9702 849 L303.9702 844 Z" clip-path="url(#clipPath2)" stroke="none"/>
      <text x="361.8907" xml:space="preserve" y="843.1699" clip-path="url(#clipPath2)" font-family="sans-serif" stroke="none">Result</text>
      <path fill="none" d="M291.999 123.5 L461.3707 123.5" clip-path="url(#clipPath2)"/>
      <path d="M469.3707 123.5 L457.3707 118.5 L460.3707 123.5 L457.3707 128.5 Z" clip-path="url(#clipPath2)" stroke="none"/>
      <text x="362.7491" xml:space="preserve" y="117.6699" clip-path="url(#clipPath2)" font-family="sans-serif" stroke="none">filelist</text>
      <path fill="none" d="M291.9517 419 L461.4228 419" clip-path="url(#clipPath2)"/>
      <path d="M469.4228 419 L457.4228 414 L460.4228 419 L457.4228 424 Z" clip-path="url(#clipPath2)" stroke="none"/>
      <text x="334.9229" xml:space="preserve" y="413.1699" clip-path="url(#clipPath2)" font-family="sans-serif" stroke="none">Block-response</text>
      <path fill="none" d="M579.8985 448.5356 L579.8985 480.5251" clip-path="url(#clipPath2)"/>
      <path d="M579.8985 488.5251 L584.8985 476.5251 L579.8985 479.5251 L574.8985 476.5251 Z" clip-path="url(#clipPath2)" stroke="none"/>
      <text x="587.2368" xml:space="preserve" y="470.9309" clip-path="url(#clipPath2)" font-family="sans-serif" stroke="none">No</text>
      <path fill="none" d="M579.8985 547.4736 L579.8985 590.5414" clip-path="url(#clipPath2)"/>
      <path d="M579.8985 598.5414 L584.8985 586.5414 L579.8985 589.5414 L574.8985 586.5414 Z" clip-path="url(#clipPath2)" stroke="none"/>
      <path fill="none" d="M579.8985 152.9866 L579.8985 187.0297" clip-path="url(#clipPath2)"/>
      <path d="M579.8985 195.0297 L584.8985 183.0297 L579.8985 186.0297 L574.8985 183.0297 Z" clip-path="url(#clipPath2)" stroke="none"/>
      <path fill="none" d="M690.4221 419 L710.3985 419 L710.3985 174.6764 L626.8046 174.6764 L626.8046 186.9867" clip-path="url(#clipPath2)"/>
      <path d="M626.8046 194.9867 L631.8046 182.9867 L626.8046 185.9867 L621.8046 182.9867 Z" clip-path="url(#clipPath2)" stroke="none"/>
      <text x="693.2726" xml:space="preserve" y="434.5493" clip-path="url(#clipPath2)" font-family="sans-serif" stroke="none">Yes</text>
      <path fill="none" d="M469.3786 276.5 L300.0198 276.5" clip-path="url(#clipPath2)"/>
      <path d="M292.0198 276.5 L304.0198 281.5 L301.0198 276.5 L304.0198 271.5 Z" clip-path="url(#clipPath2)" stroke="none"/>
      <text x="340.2491" xml:space="preserve" y="270.6699" clip-path="url(#clipPath2)" font-family="sans-serif" stroke="none">Read-request</text>
      <path fill="none" d="M181.5 -69.963 L181.5 -3.9852" clip-path="url(#clipPath2)"/>
      <path d="M181.5 4.0148 L186.5 -7.9852 L181.5 -4.9852 L176.5 -7.9852 Z" clip-path="url(#clipPath2)" stroke="none"/>
    </g>
  </g>
</svg>
